<?xml version="1.0" encoding="UTF-8" standalone="no"?>
<svg
   xmlns:dc="http://purl.org/dc/elements/1.1/"
   xmlns:cc="http://creativecommons.org/ns#"
   xmlns:rdf="http://www.w3.org/1999/02/22-rdf-syntax-ns#"
   xmlns:svg="http://www.w3.org/2000/svg"
   xmlns="http://www.w3.org/2000/svg"
   xmlns:sodipodi="http://sodipodi.sourceforge.net/DTD/sodipodi-0.dtd"
   xmlns:inkscape="http://www.inkscape.org/namespaces/inkscape"
   inkscape:version="1.0 (4035a4fb49, 2020-05-01)"
   sodipodi:docname="salesforce.svg"
   version="1.1"
   viewBox="0 0 100 100"
   data-name="Layer 1"
   id="Layer_1">
  <metadata
     id="metadata40">
    <rdf:RDF>
      <cc:Work
         rdf:about="">
        <dc:format>image/svg+xml</dc:format>
        <dc:type
           rdf:resource="http://purl.org/dc/dcmitype/StillImage" />
      </cc:Work>
    </rdf:RDF>
  </metadata>
  <defs
     id="defs38" />
  <sodipodi:namedview
     inkscape:current-layer="Layer_1"
     inkscape:window-maximized="1"
     inkscape:window-y="25"
     inkscape:window-x="0"
     inkscape:cy="41.528643"
     inkscape:cx="7.0895504"
     inkscape:zoom="2.73"
     showgrid="false"
     id="namedview36"
     inkscape:window-height="711"
     inkscape:window-width="1366"
     inkscape:pageshadow="2"
     inkscape:pageopacity="0"
     guidetolerance="10"
     gridtolerance="10"
     objecttolerance="10"
     borderopacity="1"
     bordercolor="#666666"
     pagecolor="#ffffff" />
  <title
     id="title2">salesforce</title>
  <path
     style="isolation:isolate;fill:#0088ff;fill-opacity:1;stroke-width:1.33333"
     id="path7"
     fill="url(#_lgradient_47)"
     d="m 60.212057,37.805194 c -0.654667,0.04 -1.36,0.688 -1.358667,1.405333 l -0.024,21.186666 c 0,0.957333 1.252,1.789333 1.968002,1.221333 l 13.492,-10.629333 c 0.72133,-0.561333 0.71866,-1.878666 0,-2.442666 L 60.822722,37.989194 c -0.18,-0.14 -0.392,-0.196 -0.610665,-0.184 z" />
  <path
     style="isolation:isolate;fill:#0088ff;fill-opacity:1;stroke-width:1.33333"
     id="path14"
     fill="url(#_lgradient_48)"
     fill-rule="evenodd"
     d="m 44.162724,35.137194 v 1.333333 h 4 v -1.333333 z m -4,5.333333 v 1.333333 h 8 v -1.333333 z m -6.666666,5.333333 v 1.333333 H 48.162724 V 45.80386 Z m -5.333334,5.333333 v 1.333334 h 15.833333 4.166667 v -1.333334 z m 5.333334,5.333333 v 1.333334 h 14.666666 v -1.333334 z m 6.666666,5.333334 v 1.333333 h 8 V 61.80386 Z" />
  <path
     style="isolation:isolate;fill:#ff0066;fill-opacity:1;stroke-width:1.33333"
     id="path21"
     fill="url(#_lgradient_49)"
     d="m 52.162724,27.137194 0.052,45.333332 h 2.614667 V 27.137194 Z" />
  <path
     style="isolation:isolate;fill:#ff006c;fill-opacity:1;stroke-width:1.33333"
     id="path28"
     fill="url(#_lgradient_50)"
     d="m 61.496052,25.803861 h -7.999995 -8 l 4,5.333333 4,5.333333 4,-5.333333 z" />
  <path
     style="isolation:isolate;fill:#0088ff;fill-opacity:1;stroke-width:0;stroke-miterlimit:4;stroke-dasharray:none"
     id="path35"
     fill="url(#_lgradient_51)"
     fill-rule="evenodd"
     d="m 26.829391,34.537194 v 0 c 0,1.472 -1.194667,2.666666 -2.666667,2.666666 v 0 c -1.472,0 -2.666666,-1.194666 -2.666666,-2.666666 v 0 -8.733333 c 0,-3.68 2.986666,-6.666667 6.666666,-6.666667 h 47.999998 c 3.68,0 6.66667,2.986667 6.66667,6.666667 v 25.333332 0 c 0,1.472 -1.19467,2.666667 -2.66667,2.666667 v 0 c -1.472,0 -2.66667,-1.194667 -2.66667,-2.666667 v 0 -22.666666 c 0,-2.208 -1.792,-4 -4,-4 H 30.829391 c -2.208,0 -4,1.792 -4,4 z m 50.666661,30.533332 v 0 c 0,-1.472 1.19467,-2.666666 2.66667,-2.666666 v 0 c 1.472,0 2.66667,1.194666 2.66667,2.666666 v 0 8.733333 c 0,3.68 -2.98667,6.666667 -6.66667,6.666667 H 28.162724 c -3.68,0 -6.666666,-2.986667 -6.666666,-6.666667 v -26.426666 0 c 0,-1.472 1.194666,-2.666666 2.666666,-2.666666 v 0 c 1.472,0 2.666667,1.194666 2.666667,2.666666 v 0 23.76 c 0,2.208 1.792,4 4,4 h 42.666661 c 2.208,0 4,-1.792 4,-4 z" />
</svg>
