<?xml version="1.0" encoding="UTF-8" standalone="no"?>
<svg
   xmlns:dc="http://purl.org/dc/elements/1.1/"
   xmlns:cc="http://creativecommons.org/ns#"
   xmlns:rdf="http://www.w3.org/1999/02/22-rdf-syntax-ns#"
   xmlns:svg="http://www.w3.org/2000/svg"
   xmlns="http://www.w3.org/2000/svg"
   xmlns:sodipodi="http://sodipodi.sourceforge.net/DTD/sodipodi-0.dtd"
   xmlns:inkscape="http://www.inkscape.org/namespaces/inkscape"
   id="Layer_1"
   data-name="Layer 1"
   viewBox="0 0 100 100"
   version="1.1"
   sodipodi:docname="mailchimp.svg"
   inkscape:version="1.0 (4035a4fb49, 2020-05-01)">
  <metadata
     id="metadata79">
    <rdf:RDF>
      <cc:Work
         rdf:about="">
        <dc:format>image/svg+xml</dc:format>
        <dc:type
           rdf:resource="http://purl.org/dc/dcmitype/StillImage" />
      </cc:Work>
    </rdf:RDF>
  </metadata>
  <defs
     id="defs77" />
  <sodipodi:namedview
     inkscape:document-rotation="0"
     pagecolor="#ffffff"
     bordercolor="#666666"
     borderopacity="1"
     objecttolerance="10"
     gridtolerance="10"
     guidetolerance="10"
     inkscape:pageopacity="0"
     inkscape:pageshadow="2"
     inkscape:window-width="1366"
     inkscape:window-height="711"
     id="namedview75"
     showgrid="false"
     inkscape:zoom="2.73"
     inkscape:cx="24.684601"
     inkscape:cy="50.770023"
     inkscape:window-x="0"
     inkscape:window-y="25"
     inkscape:window-maximized="1"
     inkscape:current-layer="Layer_1" />
  <title
     id="title2">mailchimp</title>
  <path
     d="m 36.003483,70.917494 5.413887,-13.448614 5.68942,13.448614 4.029664,-8.716998 2.878332,7.4525 5.572972,-13.263285 4.821821,14.527783"
     fill="none"
     vector-effect="non-scaling-stroke"
     stroke-width="3.28016"
     stroke="url(#_lgradient_7)"
     stroke-linejoin="miter"
     stroke-linecap="square"
     stroke-miterlimit="3"
     id="path7"
     style="isolation:isolate;stroke:#ff1e0c;stroke-opacity:1" />
  <path
     d="m 71.555381,52.881591 c 0.259136,1.553151 1.610561,2.738926 3.235872,2.738926 v 0 0 c 1.804086,0 3.526165,0.721632 4.805423,2.00089 1.26285,1.262858 1.984487,3.001337 1.984487,4.80542 v 5.428648 c 0,1.804082 -0.721637,3.526161 -1.984487,4.80542 -1.279258,1.279258 -3.001337,2.00089 -4.805423,2.00089 v 0 c -1.810643,0 -3.280154,1.469507 -3.280154,3.280151 v 0 c 0,1.809001 1.469511,3.280148 3.280154,3.280148 v 0 c 3.542562,0 6.937517,-1.410463 9.446832,-3.919778 2.492917,-2.509315 3.903374,-5.90427 3.903374,-9.446831 v -5.428648 c 0,-3.542562 -1.410457,-6.937517 -3.903374,-9.446831 -1.718795,-1.72044 -3.854172,-2.922614 -6.166678,-3.509761 v -6.429094 c 0,-0.131205 -0.01636,-0.278812 -0.03284,-0.410018 -0.246011,-2.017292 -0.656038,-4.001783 -1.21366,-5.953472 -0.459217,-1.656476 -1.082449,-3.263749 -1.853288,-4.805421 -0.688832,-1.377661 -1.508861,-2.689721 -2.427307,-3.903378 -0.90204,-1.164452 -1.902494,-2.230501 -3.00134,-3.198146 -1.098846,-0.967644 -2.312506,-1.820482 -3.575368,-2.558516 -1.361253,-0.770836 -2.788119,-1.426865 -4.280595,-1.95169 -1.689273,-0.590427 -3.427748,-1.016846 -5.18263,-1.295659 -2.115693,-0.328015 -4.24779,-0.508424 -6.379887,-0.524824 -1.902488,-0.0164 -3.804975,0.0656 -5.707461,0.246011 -1.574472,0.147607 -3.132543,0.393619 -4.674214,0.754435 -1.508869,0.328014 -2.968535,0.787235 -4.411802,1.361262 -1.246456,0.492022 -2.460112,1.098849 -3.608164,1.820483 -1.246457,0.770836 -2.41091,1.689277 -3.460558,2.722524 -1.016846,1.000447 -1.918888,2.115698 -2.689724,3.329353 -0.803636,1.279259 -1.476067,2.640521 -1.968089,4.067385 -0.557627,1.590873 -0.967645,3.230949 -1.213657,4.903825 -0.0164,0.164007 -0.03281,0.311614 -0.03281,0.475621 v 3.28015 0 c 0,1.809003 1.469508,3.28015 3.280151,3.28015 v 0 c 1.810643,0 3.28015,-1.471147 3.28015,-3.28015 v 0 -3.034139 c 0.180409,-1.180853 0.475622,-2.328906 0.86924,-3.444157 0.344416,-0.967643 0.787236,-1.869685 1.328461,-2.722524 0.492022,-0.803636 1.082449,-1.52527 1.75488,-2.181299 0.705232,-0.688832 1.476067,-1.312061 2.328906,-1.836884 0.803637,-0.508424 1.656475,-0.934843 2.542116,-1.279259 1.131652,-0.442819 2.279703,-0.803636 3.460558,-1.066049 1.262857,-0.295214 2.542116,-0.492023 3.837775,-0.623228 1.672877,-0.164008 3.345753,-0.229611 5.035031,-0.213211 1.804082,0.0164 3.624565,0.164009 5.412246,0.442821 1.377663,0.213211 2.722523,0.557627 4.050983,1.016848 1.098846,0.393618 2.148503,0.86924 3.165341,1.443265 0.902049,0.524824 1.738487,1.115251 2.525724,1.804083 0.770826,0.67243 1.459658,1.426864 2.082891,2.230501 0.688831,0.902041 1.279258,1.853284 1.787677,2.853731 0.590427,1.180854 1.066053,2.41091 1.426865,3.690168 0.44282,1.558071 0.77084,3.148944 0.984046,4.772617 v 6.34709 2.738926 0 0.541225 z M 25.638209,74.661785 v 0 c 1.810643,0 3.28015,1.469507 3.28015,3.280151 v 0 c 0,1.809001 -1.469507,3.280148 -3.28015,3.280148 v 0 c -3.542562,0 -6.953917,-1.410463 -9.446832,-3.919778 -2.509315,-2.509315 -3.919778,-5.90427 -3.919778,-9.446831 v -5.428648 c 0,-3.542562 1.410463,-6.937517 3.919778,-9.446831 2.492915,-2.509316 5.90427,-3.91978 9.446832,-3.91978 v 0 c 1.810643,0 3.28015,1.469507 3.28015,3.28015 v 0 c 0,1.809003 -1.469507,3.280151 -3.28015,3.280151 v 0 c -1.804083,0 -3.542562,0.721632 -4.82182,2.00089 -1.262858,1.262858 -1.984491,3.001337 -1.984491,4.80542 v 5.428648 c 0,1.804082 0.721633,3.526161 1.984491,4.80542 1.279258,1.279258 3.017737,2.00089 4.82182,2.00089 z m 11.660933,0.393618 v 0 c 0,1.809003 -2.20426,3.28015 -4.920225,3.28015 v 0 c -0.905321,0 -1.640074,-0.734754 -1.640074,-1.640076 V 75.055403 55.226898 53.586823 c 0,-0.905322 0.734753,-1.640075 1.640074,-1.640075 v 0 c 2.715965,0 4.920225,1.469508 4.920225,3.28015 v 0 z m 32.375077,0 v 1.640074 c 0,0.905322 -0.734749,1.640076 -1.640071,1.640076 v 0 c -2.715964,0 -4.920224,-1.471147 -4.920224,-3.28015 v 0 -19.828505 0 c 0,-1.810642 2.20426,-3.28015 4.920224,-3.28015 v 0 c 0.905322,0 1.640071,0.734753 1.640071,1.640075 v 1.640075 z"
     fill-rule="evenodd"
     fill="url(#_lgradient_8)"
     id="path14"
     style="isolation:isolate;fill:#00c4ff;fill-opacity:1;stroke-width:1.64007" />
</svg>
